<svg xmlns="http://www.w3.org/2000/svg" width="860" height="380" font-family="sans-serif">
<rect width="860" height="380" fill="white"/>
<text x="430.0" y="24" text-anchor="middle" font-size="16" font-weight="bold">六场景吞吐对比（ops/s，每场景 3 次取中位数）</text>
<line x1="70" y1="252" x2="840" y2="252" stroke="#e5e7eb"/>
<text x="64" y="256" text-anchor="end" font-size="10" fill="#6b7280">62k</text>
<line x1="70" y1="183" x2="840" y2="183" stroke="#e5e7eb"/>
<text x="64" y="187" text-anchor="end" font-size="10" fill="#6b7280">124k</text>
<line x1="70" y1="114" x2="840" y2="114" stroke="#e5e7eb"/>
<text x="64" y="118" text-anchor="end" font-size="10" fill="#6b7280">186k</text>
<line x1="70" y1="46" x2="840" y2="46" stroke="#e5e7eb"/>
<text x="64" y="50" text-anchor="end" font-size="10" fill="#6b7280">249k</text>
<rect x="100.2" y="275.4" width="30.0" height="44.6" fill="#9aa5b1" rx="2"/>
<text x="115.2" y="271.4" text-anchor="middle" font-size="9" fill="#374151">40k</text>
<rect x="134.2" y="264.2" width="30.0" height="55.8" fill="#2e7de9" rx="2"/>
<text x="149.2" y="260.2" text-anchor="middle" font-size="9" fill="#374151">51k</text>
<text x="134.2" y="336" text-anchor="middle" font-size="11">latency-echo</text>
<rect x="228.5" y="282.4" width="30.0" height="37.6" fill="#9aa5b1" rx="2"/>
<text x="243.5" y="278.4" text-anchor="middle" font-size="9" fill="#374151">34k</text>
<rect x="262.5" y="280.3" width="30.0" height="39.7" fill="#2e7de9" rx="2"/>
<text x="277.5" y="276.3" text-anchor="middle" font-size="9" fill="#374151">36k</text>
<text x="262.5" y="336" text-anchor="middle" font-size="11">bulk-kb-search</text>
<rect x="339.8" y="311.5" width="30.0" height="8.5" fill="#9aa5b1" rx="2"/>
<text x="354.8" y="307.5" text-anchor="middle" font-size="9" fill="#374151">8k</text>
<rect x="373.8" y="309.4" width="30.0" height="10.6" fill="#2e7de9" rx="2"/>
<text x="388.8" y="305.4" text-anchor="middle" font-size="9" fill="#374151">10k</text>
<rect x="407.8" y="307.1" width="30.0" height="12.9" fill="#12a594" rx="2"/>
<text x="422.8" y="303.1" text-anchor="middle" font-size="9" fill="#374151">12k</text>
<text x="390.8" y="336" text-anchor="middle" font-size="11">bulk-doc-64k</text>
<rect x="485.2" y="283.6" width="30.0" height="36.4" fill="#9aa5b1" rx="2"/>
<text x="500.2" y="279.6" text-anchor="middle" font-size="9" fill="#374151">33k</text>
<rect x="519.2" y="271.3" width="30.0" height="48.7" fill="#2e7de9" rx="2"/>
<text x="534.2" y="267.3" text-anchor="middle" font-size="9" fill="#374151">44k</text>
<text x="519.2" y="336" text-anchor="middle" font-size="11">repeat-cached</text>
<rect x="613.5" y="171.9" width="30.0" height="148.1" fill="#9aa5b1" rx="2"/>
<text x="628.5" y="167.9" text-anchor="middle" font-size="9" fill="#374151">134k</text>
<rect x="647.5" y="66.3" width="30.0" height="253.7" fill="#2e7de9" rx="2"/>
<text x="662.5" y="62.3" text-anchor="middle" font-size="9" fill="#374151">230k</text>
<text x="647.5" y="336" text-anchor="middle" font-size="11">pipeline-64</text>
<rect x="741.8" y="216.2" width="30.0" height="103.8" fill="#9aa5b1" rx="2"/>
<text x="756.8" y="212.2" text-anchor="middle" font-size="9" fill="#374151">94k</text>
<rect x="775.8" y="182.3" width="30.0" height="137.7" fill="#2e7de9" rx="2"/>
<text x="790.8" y="178.3" text-anchor="middle" font-size="9" fill="#374151">125k</text>
<text x="775.8" y="336" text-anchor="middle" font-size="11">concurrent-16</text>
<rect x="70" y="354" width="12" height="12" fill="#9aa5b1" rx="2"/>
<text x="86" y="364" font-size="11">JSON-RPC 基线</text>
<rect x="300" y="354" width="12" height="12" fill="#2e7de9" rx="2"/>
<text x="316" y="364" font-size="11">ohmcp（认证+加密）</text>
<rect x="530" y="354" width="12" height="12" fill="#12a594" rx="2"/>
<text x="546" y="364" font-size="11">ohmcp + 共享内存通道</text>
</svg>